<?xml version="1.0" encoding="utf-8"?>
<!-- Generator: Adobe Illustrator 26.2.1, SVG Export Plug-In . SVG Version: 6.00 Build 0)  -->
<svg version="1.1" id="Capa_1" xmlns="http://www.w3.org/2000/svg" xmlns:xlink="http://www.w3.org/1999/xlink" x="0px" y="0px"
	 viewBox="0 0 100 100" style="enable-background:new 0 0 100 100;" xml:space="preserve">
<style type="text/css">
	.st0{fill:#00A19A;}
</style>
<path class="st0" d="M5.76,94.17c-1.04-0.54-1.19-0.98-1.19-1.38c0-0.82-0.02-1.65-0.03-2.48c-0.05-2.61-0.1-5.31,0.21-7.89
	c0.84-6.93,4.57-11.8,11.11-14.47c3.67-1.5,7.48-2.84,11.17-4.14c1.69-0.59,3.38-1.19,5.07-1.8c0.21-0.08,0.42-0.17,0.65-0.26
	l1.6-0.67l-1.1-1.27c-0.11-0.13-0.19-0.22-0.28-0.32c-4.38-4.67-6.57-10.32-6.51-16.81c0.02-2.38,0.02-4.76,0.01-7.14l0-3.2V22.2
	l-0.89-0.31c-0.18-0.07-0.35-0.13-0.53-0.18l-8.33-2.37l-1.56-0.44c-1.18-0.33-2.36-0.66-3.54-1.02c-0.74-0.23-1.29-0.75-1.45-1.39
	c-0.13-0.52,0.01-1.02,0.41-1.42c0.31-0.31,0.85-0.59,1.52-0.79c14.02-4.11,25.73-7.5,36.84-10.69c0.31-0.09,0.65-0.13,1.01-0.13
	c0.33,0,0.64,0.04,0.91,0.12c11.24,3.21,22.46,6.47,33.69,9.72l3.6,1.04c1.45,0.42,1.76,0.84,1.76,2.39l0,3.07
	c0,6.83,0,13.66-0.01,20.48c0,0.68,0.14,1.52,1.26,2.01c1.81,0.79,3.06,2.15,3.82,4.15c0.1,0.27,0.2,0.54,0.29,0.82l0.08,0.24v7.2
	c-0.55,1.02-1.09,1.24-1.73,1.24l-6.79,0c-1.36,0-2.73,0-4.09-0.01c-0.99,0-1.69-0.71-1.7-1.7l-0.01-0.99
	c-0.02-1.54-0.04-3.12,0.02-4.67c0.12-2.88,1.46-4.92,4.1-6.25c0.66-0.33,1.34-0.84,1.33-2.09c-0.02-5.09-0.02-10.18-0.02-15.27
	l0-6.51L73.4,22.15l0,1.85c-0.02,1.82-0.02,3.63-0.03,5.45c-0.01,4.12-0.02,8.37-0.21,12.54c-0.24,5.15-1.72,9.93-4.42,14.2
	c-0.58,0.92-1.23,1.8-1.92,2.73c-0.31,0.42-0.63,0.85-0.94,1.28l-0.74,1.03l1.28,0.52c0.11,0.05,0.22,0.09,0.33,0.13
	c1.71,0.6,3.42,1.21,5.13,1.81c3.74,1.31,7.48,2.62,11.2,3.98c5.96,2.16,9.88,6.36,11.65,12.48c0.17,0.59,0.3,1.2,0.43,1.84
	c0.05,0.26,0.11,0.52,0.17,0.78v10.18c-0.28,0.54-0.68,0.94-1.22,1.22H5.76z M68.33,66.27c-0.75,0-1.25,0.42-1.56,0.73
	c-2.26,2.28-4.53,4.55-6.8,6.82l-3.69,3.69c-1.02,1.02-2.03,2.05-3.04,3.08l-1.57,1.6l-0.03,8.51h40.1v-1c0-0.67,0.02-1.34,0.03-2
	c0.03-1.42,0.07-2.9-0.07-4.34c-0.52-5.54-3.38-9.59-8.29-11.7c-3.08-1.32-6.29-2.43-9.4-3.51c-1.6-0.55-3.21-1.11-4.8-1.69
	C68.9,66.33,68.61,66.27,68.33,66.27z M31.37,66.12c-0.28,0-0.57,0.06-0.89,0.17c-1.94,0.72-3.89,1.42-5.84,2.12
	c-2.24,0.81-4.49,1.61-6.72,2.44c-5.27,1.96-8.57,5.73-9.55,10.92c-0.34,1.79-0.4,3.63-0.46,5.41c-0.03,0.8-0.05,1.62-0.1,2.43
	l-0.07,1.06h40.46l0-2.68c0.01-1.59,0.01-3.16-0.03-4.72c-0.02-0.69-0.33-1.44-0.8-1.92c-2.64-2.67-5.3-5.33-7.95-7.99
	c-2.17-2.17-4.33-4.34-6.49-6.52C32.63,66.54,32.12,66.12,31.37,66.12z M49.93,78.62L65.35,63.2l-3.25,0.66
	c-0.19,0.04-0.37,0.06-0.53,0.09c-0.41,0.06-0.84,0.12-1.25,0.33c-3.05,1.59-6.34,2.44-9.79,2.53c-0.21,0.01-0.41,0.01-0.62,0.01
	c-3.84,0-7.53-0.92-10.97-2.73c-0.31-0.17-0.62-0.22-0.92-0.28c-0.11-0.02-0.24-0.04-0.37-0.08l-3.48-0.85L49.93,78.62z M29.9,36.69
	c0,0.36,0,0.7-0.01,1.04c-0.01,0.75-0.02,1.46,0.02,2.17c0.03,0.69,0.04,1.39,0.05,2.08c0.03,1.76,0.06,3.59,0.41,5.37
	c1.6,8.1,8,14.26,16.31,15.68c1.11,0.19,2.22,0.29,3.32,0.29c6.65,0,12.65-3.52,16.04-9.42c2.07-3.61,3.29-7.67,3.73-12.43
	c0.1-1.06,0.13-2.11,0.17-3.21c0.02-0.5,0.04-1.02,0.06-1.54l0.07-1.52l-1.43,0.54c-6.23,2.37-12.54,3.57-18.73,3.57
	c-6.17,0-12.45-1.19-18.67-3.55l-1.35-0.51V36.69z M88.14,45.06c-1.8,0-3.39,1.42-3.61,3.23c-0.09,0.76-0.07,1.52-0.05,2.24
	c0.01,0.31,0.02,0.61,0.02,0.92v1h7.38v-1c0-0.3,0-0.6,0.01-0.89c0.01-0.65,0.02-1.26-0.02-1.9c-0.12-1.97-1.61-3.48-3.52-3.6
	C88.28,45.06,88.21,45.06,88.14,45.06z M29.9,28.15c0,3.05,0.26,3.43,3.14,4.52c5.51,2.09,11.16,3.14,16.85,3.14
	c2.03,0,4.11-0.13,6.16-0.4c4.42-0.57,8.71-1.77,12.76-3.57c0.54-0.24,1.12-0.87,1.14-1.56c0.03-1.46,0.03-2.92,0.03-4.42l0-2.57
	l-1.34,0.24c-0.14,0.02-0.22,0.04-0.31,0.06l-4.38,1.25c-4.19,1.2-8.53,2.43-12.8,3.6c-0.4,0.11-0.84,0.17-1.27,0.17
	c-0.34,0-0.66-0.04-0.94-0.11c-2.64-0.69-5.32-1.47-7.9-2.22c-1-0.29-2.01-0.58-3.01-0.87l-8.1-2.31V28.15z M49.99,7.08
	c-0.43,0-0.9,0.07-1.35,0.2c-5.68,1.63-11.35,3.28-17.02,4.93l-12.36,3.61l2.26,1.14l0.22,0.12c0.13,0.07,0.26,0.14,0.44,0.19
	l0.56,0.16c8.81,2.52,17.62,5.04,26.44,7.53c0.22,0.06,0.47,0.1,0.73,0.1l0,0c0.31,0,0.64-0.05,0.95-0.13
	c6.53-1.84,13.05-3.69,19.58-5.55l8.5-2.42l-0.04-0.97l-0.02-0.73l-5.8-1.67C65.68,11.44,58.3,9.31,50.92,7.2
	C50.63,7.12,50.32,7.08,49.99,7.08z"/>
<path class="st0" d="M49.88,55.98c-3.42-0.08-6.28-1.27-8.75-3.62c-0.76-0.72-0.83-1.78-0.17-2.51c0.34-0.38,0.78-0.59,1.24-0.59
	c0.41,0,0.82,0.16,1.18,0.48c1.9,1.63,3.71,2.47,5.71,2.64c0.29,0.03,0.58,0.04,0.87,0.04c1.96,0,3.78-0.6,5.41-1.8
	c0.23-0.17,0.44-0.35,0.66-0.53c0.18-0.15,0.35-0.3,0.54-0.44c0.32-0.24,0.7-0.37,1.08-0.37c0.49,0,0.94,0.2,1.26,0.57
	c0.61,0.69,0.6,1.7-0.03,2.34c-1.89,1.92-4.17,3.11-6.78,3.54c-0.5,0.08-1.02,0.13-1.53,0.17C50.34,55.94,50.11,55.96,49.88,55.98z"
	/>
</svg>
